# xmcd
#
# Track frame offsets: 
#        150
#        15705
#        29058
#        51135
#        64487
#        86710
#        106623
#        120648
#        139038
#        154975
#        166618
#        185642
#        212195
#        228293
#
# Disc length: 3229 seconds
#
# Revision: 0
# Processed by: cddbd v1.5.2PL0 Copyright (c) Steve Scherf et al.
# Submitted via: ExactAudioCopyFreeDBPlugin 1.0
#
DISCID=bf0c9b0e
DTITLE=พงษ์เทพ กระโดนชำนาญ - ดีที่สุด Disc 1
DYEAR=1900
DGENRE=Thai Country
TTITLE0=ฝนจางนางหาย
TTITLE1=จันทราคาลิปโซ่
TTITLE2=ต้นขับขี่
TTITLE3=คิดถึงบ้าน
TTITLE4=น้ำตาหอยทาก
TTITLE5=แก้มตุ่ย
TTITLE6=จ.รอคอย 
TTITLE7=ตังเก
TTITLE8=ด.ญ.ปรางค์
TTITLE9=หยุดพักสายตา
TTITLE10=คนเดินดิน
TTITLE11=สถาพร
TTITLE12=ดอกแก้ว
TTITLE13=ตา
EXTD=
EXTT0=
EXTT1=
EXTT2=
EXTT3=
EXTT4=
EXTT5=
EXTT6=
EXTT7=
EXTT8=
EXTT9=
EXTT10=
EXTT11=
EXTT12=
EXTT13=
PLAYORDER=
